<?xml version="1.0" encoding="utf-8"?>
<!-- Generator: Adobe Illustrator 16.0.3, SVG Export Plug-In . SVG Version: 6.00 Build 0)  -->
<!DOCTYPE svg PUBLIC "-//W3C//DTD SVG 1.1//EN" "http://www.w3.org/Graphics/SVG/1.1/DTD/svg11.dtd">
<svg xmlns="http://www.w3.org/2000/svg" xmlns:xlink="http://www.w3.org/1999/xlink" version="1.1" id="Warstwa_1" x="0px" y="0px" width="650px" height="300px" viewBox="0 0 650 300" xml:space="preserve">
<polyline fill="#2AABDD" points="0,300 0,0 650,0 650,300 "/>
<g opacity="0.5">
	<path fill="#FFFFFF" d="M292.292,95.052c-1.419,0-2.746,0.378-3.898,1.029c-0.271-6.412-5.541-11.529-12.021-11.529   c-0.797,0-1.572,0.081-2.327,0.231c0.088-0.764,0.14-1.541,0.14-2.327c0-10.917-8.849-19.766-19.763-19.766   c-10.174,0-18.55,7.692-19.638,17.577c-2.172-1.166-4.651-1.829-7.288-1.829c-6.024,0-11.231,3.46-13.774,8.494   c-1.255-0.531-2.637-0.826-4.086-0.826c-5.761,0-10.436,4.645-10.495,10.393c-2.035,1.432-3.367,3.795-3.367,6.474   c0,4.377,3.546,7.922,7.921,7.922c0.449,0,0.89-0.046,1.318-0.117c0.412,0.071,0.833,0.117,1.265,0.117h84.28   c0.285,0,0.564-0.021,0.838-0.052c0.293,0.031,0.592,0.052,0.893,0.052c4.375,0,7.922-3.545,7.922-7.922   C300.214,98.6,296.668,95.052,292.292,95.052z"/>
	<g>
		<path fill="#414042" d="M292.292,112.02c-0.299,0-0.597-0.018-0.89-0.045c-0.276,0.027-0.556,0.045-0.842,0.045h-84.28    c-0.407,0-0.824-0.033-1.269-0.103c-0.46,0.069-0.892,0.103-1.314,0.103c-4.988,0-9.046-4.058-9.046-9.046    c0-2.744,1.255-5.339,3.387-7.049c0.356-6.084,5.446-10.942,11.599-10.942c1.223,0,2.417,0.188,3.563,0.556    c2.967-5.098,8.357-8.225,14.297-8.225c2.196,0,4.38,0.441,6.397,1.286c1.821-9.813,10.386-17.034,20.528-17.034    c11.518,0,20.888,9.371,20.888,20.891c0,0.335-0.009,0.673-0.026,1.018c0.363-0.031,0.726-0.047,1.088-0.047    c6.524,0,11.943,4.713,12.979,10.995c0.945-0.327,1.94-0.495,2.941-0.495c4.988,0,9.046,4.057,9.046,9.046    C301.339,107.962,297.281,112.02,292.292,112.02z M291.395,109.714l0.122,0.012c0.255,0.026,0.515,0.045,0.776,0.045    c3.748,0,6.797-3.049,6.797-6.797c0-3.749-3.049-6.797-6.797-6.797c-1.166,0-2.322,0.306-3.345,0.885l-1.599,0.903l-0.079-1.834    c-0.248-5.861-5.035-10.453-10.897-10.453c-0.702,0-1.411,0.07-2.106,0.209l-1.514,0.303l0.176-1.535    c0.089-0.774,0.133-1.495,0.133-2.198c0-10.279-8.361-18.642-18.639-18.642c-9.519,0-17.481,7.126-18.52,16.576l-0.183,1.654    l-1.467-0.786c-2.067-1.11-4.403-1.696-6.756-1.696c-5.423,0-10.316,3.018-12.771,7.876l-0.474,0.938l-0.968-0.41    c-1.155-0.489-2.382-0.736-3.647-0.736c-5.115,0-9.318,4.163-9.37,9.28l-0.006,0.577l-0.471,0.331    c-1.81,1.274-2.89,3.349-2.89,5.554c0,3.748,3.049,6.797,6.797,6.797c0.354,0,0.723-0.033,1.132-0.101l0.189-0.032l0.19,0.032    c0.387,0.068,0.738,0.101,1.072,0.101h84.28c0.242,0,0.479-0.018,0.713-0.044L291.395,109.714z"/>
	</g>
	<g>
		<path fill="#414042" d="M241.848,89.766h-2.249c0-3.576-1.985-6.799-5.179-8.411l1.014-2.009    C239.39,81.344,241.848,85.336,241.848,89.766z"/>
	</g>
	<g>
		<path fill="#414042" d="M268.247,89.939l-1.887-1.224c2.408-3.718,6.643-5.729,11.05-5.255l-0.242,2.237    C273.615,85.304,270.191,86.937,268.247,89.939z"/>
	</g>
</g>
<g opacity="0.5">
	<path fill="#FFFFFF" d="M191.944,138.871c-0.961,0-1.86,0.256-2.641,0.698c-0.184-4.345-3.754-7.811-8.143-7.811   c-0.54,0-1.066,0.055-1.576,0.157c0.06-0.519,0.095-1.044,0.095-1.577c0-7.396-5.994-13.389-13.388-13.389   c-6.892,0-12.567,5.209-13.304,11.905c-1.471-0.789-3.15-1.238-4.937-1.238c-4.081,0-7.608,2.344-9.331,5.754   c-0.85-0.36-1.786-0.56-2.767-0.56c-3.903,0-7.069,3.147-7.11,7.041c-1.378,0.971-2.281,2.57-2.281,4.385   c0,2.965,2.402,5.366,5.367,5.366c0.304,0,0.603-0.03,0.893-0.079c0.279,0.049,0.564,0.079,0.857,0.079h57.092   c0.193,0,0.382-0.013,0.568-0.035c0.199,0.022,0.401,0.035,0.605,0.035c2.964,0,5.366-2.401,5.366-5.366   C197.311,141.275,194.909,138.871,191.944,138.871z"/>
	<g>
		<path fill="#414042" d="M191.944,150.729c-0.202,0-0.403-0.011-0.601-0.029c-0.188,0.019-0.378,0.029-0.572,0.029h-57.092    c-0.293,0-0.579-0.025-0.86-0.065c-0.291,0.04-0.588,0.065-0.89,0.065c-3.58,0-6.491-2.912-6.491-6.491    c0-1.915,0.853-3.728,2.306-4.955c0.332-4.235,3.903-7.595,8.209-7.595c0.769,0,1.521,0.104,2.248,0.311    c2.103-3.419,5.794-5.506,9.851-5.506c1.387,0,2.769,0.252,4.064,0.736c1.43-6.598,7.278-11.403,14.176-11.403    c8.002,0,14.512,6.512,14.512,14.514c0,0.101-0.001,0.202-0.004,0.303c4.589-0.186,8.52,2.999,9.434,7.336    c0.556-0.152,1.132-0.231,1.711-0.231c3.579,0,6.491,2.913,6.491,6.491C198.436,147.816,195.523,150.729,191.944,150.729z     M191.335,148.437l0.128,0.015c0.158,0.018,0.319,0.028,0.481,0.028c2.339,0,4.242-1.903,4.242-4.242    c0-2.338-1.903-4.242-4.242-4.242c-0.727,0-1.449,0.19-2.086,0.553l-1.6,0.906l-0.079-1.838c-0.16-3.774-3.243-6.732-7.019-6.732    c-0.454,0-0.91,0.045-1.355,0.135l-1.514,0.305l0.176-1.535c0.054-0.477,0.087-0.96,0.087-1.449    c0-6.764-5.501-12.265-12.263-12.265c-6.263,0-11.502,4.688-12.186,10.904l-0.182,1.654l-1.467-0.786    c-1.368-0.733-2.85-1.105-4.405-1.105c-3.536,0-6.727,1.968-8.327,5.137l-0.475,0.938l-0.968-0.41    c-0.736-0.312-1.52-0.47-2.329-0.47c-3.267,0-5.952,2.659-5.985,5.928l-0.006,0.575l-0.471,0.332    c-1.129,0.795-1.803,2.091-1.803,3.466c0,2.339,1.902,4.242,4.242,4.242c0.241,0,0.478-0.025,0.707-0.064l0.189-0.031l0.188,0.032    c0.216,0.038,0.438,0.063,0.666,0.063h57.092c0.148,0,0.293-0.011,0.437-0.028L191.335,148.437z"/>
	</g>
	<g>
		<path fill="#414042" d="M158.135,135.291h-2.249c0-2.286-1.268-4.345-3.309-5.374l1.013-2.009    C156.393,129.322,158.135,132.151,158.135,135.291z"/>
	</g>
	<g>
		<path fill="#414042" d="M175.96,135.605l-1.888-1.224c1.707-2.633,4.701-4.057,7.829-3.724l-0.241,2.237    C179.378,132.637,177.202,133.688,175.96,135.605z"/>
	</g>
</g>
<g opacity="0.2">
	<path fill="#FFFFFF" d="M573.286,152.002c-0.677,0-1.31,0.181-1.858,0.492c-0.129-3.059-2.642-5.497-5.729-5.497   c-0.38,0-0.751,0.04-1.109,0.11c0.042-0.365,0.067-0.733,0.067-1.108c0-5.203-4.217-9.42-9.42-9.42c-4.85,0-8.841,3.665-9.36,8.377   c-1.034-0.557-2.216-0.872-3.472-0.872c-2.872,0-5.354,1.649-6.566,4.048c-0.597-0.253-1.256-0.394-1.947-0.394   c-2.745,0-4.974,2.214-5,4.953c-0.971,0.683-1.605,1.809-1.605,3.086c0,2.085,1.688,3.776,3.775,3.776   c0.214,0,0.423-0.022,0.628-0.056c0.196,0.033,0.396,0.056,0.604,0.056h40.167c0.137,0,0.271-0.011,0.399-0.025   c0.141,0.015,0.283,0.025,0.427,0.025c2.086,0,3.774-1.691,3.774-3.776C577.061,153.693,575.372,152.002,573.286,152.002z"/>
	<g>
		<path fill="#414042" d="M573.286,160.678c-0.143,0-0.283-0.007-0.422-0.019c-0.132,0.012-0.268,0.019-0.404,0.019h-40.167    c-0.207,0-0.409-0.016-0.606-0.042c-0.205,0.026-0.413,0.042-0.625,0.042c-2.702,0-4.899-2.197-4.899-4.9    c0-1.4,0.602-2.727,1.636-3.65c0.311-3.087,2.936-5.514,6.094-5.514c0.487,0,0.965,0.056,1.431,0.169    c1.561-2.381,4.195-3.823,7.083-3.823c0.89,0,1.775,0.142,2.618,0.416c1.173-4.605,5.332-7.92,10.214-7.92    c5.772,0,10.476,4.662,10.543,10.418c3.144,0.036,5.779,2.171,6.55,5.1c0.314-0.063,0.634-0.095,0.956-0.095    c2.701,0,4.899,2.197,4.899,4.899C578.186,158.48,575.987,160.678,573.286,160.678z M572.854,158.396l0.123,0.014    c1.518,0.161,2.96-1.066,2.96-2.633c0-1.462-1.189-2.65-2.65-2.65c-0.462,0-0.899,0.115-1.304,0.346l-1.601,0.909l-0.077-1.841    c-0.117-2.769-2.645-4.897-5.498-4.33l-1.513,0.296l0.179-1.53c0.038-0.322,0.06-0.646,0.06-0.978    c0-4.574-3.721-8.295-8.295-8.295c-4.235,0-7.779,3.171-8.243,7.375l-0.182,1.657l-1.469-0.79    c-0.897-0.483-1.914-0.738-2.938-0.738c-2.36,0-4.492,1.315-5.563,3.431l-0.474,0.938l-0.968-0.41    c-0.477-0.201-0.984-0.304-1.509-0.304c-2.117,0-3.855,1.722-3.876,3.839l-0.006,0.578l-0.472,0.331    c-0.705,0.496-1.127,1.307-1.127,2.166c0,1.463,1.188,2.651,2.65,2.651c0.152,0,0.3-0.018,0.446-0.041l0.187-0.03l0.186,0.032    c0.135,0.023,0.271,0.039,0.413,0.039h40.167c0.093,0,0.185-0.007,0.272-0.018L572.854,158.396z"/>
	</g>
	<g>
		<path fill="#414042" d="M549.833,149.482h-2.249c0-1.48-0.821-2.814-2.146-3.482l1.014-2.009    C548.537,145.044,549.833,147.148,549.833,149.482z"/>
	</g>
	<g>
		<path fill="#414042" d="M562.32,149.885l-1.889-1.221c1.268-1.961,3.476-3.017,5.824-2.772l-0.243,2.237    C564.544,147.968,563.126,148.644,562.32,149.885z"/>
	</g>
</g>
<g opacity="0.5">
	<g>
		<path fill="#414042" d="M446.442,131.734c-0.585,0-1.177-0.458-1.177-1.335v-28.152h73.225v22.546h-61.451l-9.771,6.665    C446.998,131.64,446.721,131.734,446.442,131.734z M446.8,103.78v26.136l9.766-6.657h60.39V103.78H446.8z"/>
	</g>
	<g>
		<path fill="#414042" d="M509.44,109.427h-51.083c-0.423,0-0.767-0.344-0.767-0.768s0.344-0.767,0.767-0.767h51.083    c0.423,0,0.767,0.343,0.767,0.767S509.863,109.427,509.44,109.427z"/>
	</g>
	<g>
		<path fill="#414042" d="M509.44,114.455h-51.083c-0.423,0-0.767-0.344-0.767-0.768c0-0.423,0.344-0.767,0.767-0.767h51.083    c0.423,0,0.767,0.343,0.767,0.767C510.207,114.111,509.863,114.455,509.44,114.455z"/>
	</g>
	<g>
		<path fill="#414042" d="M500.894,119.482h-42.536c-0.423,0-0.767-0.344-0.767-0.767c0-0.424,0.344-0.768,0.767-0.768h42.536    c0.423,0,0.767,0.344,0.767,0.768C501.66,119.138,501.316,119.482,500.894,119.482z"/>
	</g>
</g>
<g>
	<g>
		<path fill="#414042" d="M532.898,200.666c-6.958,0-12.618-5.66-12.618-12.617s5.66-12.617,12.618-12.617    c6.957,0,12.617,5.66,12.617,12.617S539.855,200.666,532.898,200.666z M532.898,177.314c-5.92,0-10.734,4.814-10.734,10.734    s4.814,10.734,10.734,10.734c5.919,0,10.734-4.814,10.734-10.734S538.817,177.314,532.898,177.314z"/>
	</g>
	<g>
		<path fill="#414042" d="M532.663,187.67c-2.175,0-3.942-1.768-3.942-3.942c0-2.173,1.768-3.941,3.942-3.941    c2.174,0,3.942,1.769,3.942,3.941C536.605,185.902,534.837,187.67,532.663,187.67z M532.663,181.67    c-1.136,0-2.06,0.923-2.06,2.058c0,1.136,0.924,2.06,2.06,2.06s2.059-0.924,2.059-2.06    C534.722,182.593,533.799,181.67,532.663,181.67z"/>
	</g>
	<g>
		<path fill="#414042" d="M537.767,197.636c-0.521,0-0.941-0.422-0.941-0.941v-2.798c0-2.165-1.761-3.926-3.927-3.926    c-2.164,0-3.926,1.761-3.926,3.926v2.798c0,0.52-0.422,0.941-0.941,0.941c-0.521,0-0.941-0.422-0.941-0.941v-2.798    c0-3.204,2.605-5.81,5.809-5.81s5.811,2.605,5.811,5.81v2.798C538.709,197.214,538.287,197.636,537.767,197.636z"/>
	</g>
</g>
<g>
	<g>
		<path fill="#414042" d="M180.564,87.761c-6.809,0-12.349-5.539-12.349-12.349c0-6.811,5.54-12.35,12.349-12.35    c6.81,0,12.35,5.539,12.35,12.35C192.914,82.222,187.374,87.761,180.564,87.761z M180.564,65.312c-5.569,0-10.1,4.53-10.1,10.101    c0,5.57,4.531,10.1,10.1,10.1c5.569,0,10.101-4.53,10.101-10.1C190.665,69.842,186.133,65.312,180.564,65.312z"/>
	</g>
	<g>
		<path fill="#414042" d="M180.337,75.267c-2.21,0-4.009-1.798-4.009-4.009s1.799-4.009,4.009-4.009c2.21,0,4.009,1.798,4.009,4.009    S182.547,75.267,180.337,75.267z M180.337,69.498c-0.971,0-1.76,0.789-1.76,1.76s0.789,1.76,1.76,1.76    c0.971,0,1.76-0.79,1.76-1.76S181.308,69.498,180.337,69.498z"/>
	</g>
	<g>
		<path fill="#414042" d="M185.243,84.848c-0.621,0-1.125-0.504-1.125-1.125v-2.69c0-1.96-1.594-3.555-3.554-3.555    c-1.96,0-3.555,1.595-3.555,3.555v2.69c0,0.621-0.503,1.125-1.125,1.125c-0.621,0-1.125-0.504-1.125-1.125v-2.69    c0-3.201,2.604-5.804,5.804-5.804c3.2,0,5.803,2.604,5.803,5.804v2.69C186.367,84.344,185.863,84.848,185.243,84.848z"/>
	</g>
</g>
<g>
	<path fill="#414042" d="M124.223,213.374h2.22v-2.313h1.603v2.313h2.233v1.508h-2.233v2.343h-1.603v-2.343h-2.22V213.374z"/>
</g>
<g>
	<path fill="#414042" d="M127.251,172.318h2.426v-2.529h1.754v2.529h2.441v1.649h-2.441v2.563h-1.754v-2.563h-2.426V172.318z"/>
</g>
<g>
	<path fill="#414042" d="M534.021,219.298h2.427v-2.529h1.754v2.529h2.44v1.649h-2.44v2.563h-1.754v-2.563h-2.427V219.298z"/>
</g>
<g>
	<path fill="#414042" d="M170.136,104.041h2.426v-2.53h1.754v2.53h2.441v1.648h-2.441v2.563h-1.754v-2.563h-2.426V104.041z"/>
</g>
<path fill="#414042" d="M410.783,62.36c-0.151-0.094-0.254-0.243-0.298-0.417c-0.041-0.176-0.009-0.356,0.082-0.505  c0.123-0.202,0.333-0.319,0.576-0.319c0.117,0,0.237,0.035,0.346,0.097l3.96,2.451c0.151,0.091,0.263,0.24,0.304,0.42  c0.044,0.17,0.015,0.352-0.082,0.507c-0.126,0.201-0.339,0.318-0.573,0.318c-0.117,0-0.243-0.034-0.354-0.097L410.783,62.36z   M415.63,70.302c0.053-0.173,0.029-0.354-0.053-0.508c-0.122-0.214-0.348-0.352-0.588-0.352c-0.117,0-0.226,0.025-0.328,0.082  l-4.085,2.229c-0.158,0.089-0.272,0.231-0.319,0.404c-0.05,0.165-0.038,0.353,0.05,0.508c0.114,0.217,0.34,0.35,0.585,0.35  c0.12,0,0.223-0.026,0.328-0.081l4.083-2.23C415.464,70.621,415.58,70.476,415.63,70.302z M424.565,64.678  c0.123,0.209,0.349,0.334,0.588,0.334c0.111,0,0.226-0.028,0.331-0.083l4.045-2.311c0.155-0.082,0.27-0.226,0.313-0.401  c0.053-0.168,0.026-0.352-0.062-0.511c-0.117-0.208-0.343-0.335-0.583-0.335c-0.114,0-0.231,0.031-0.331,0.089l-4.041,2.297  C424.501,63.947,424.384,64.358,424.565,64.678z M417.109,71.628c-0.24,0-0.46,0.125-0.577,0.327l-2.416,3.979  c-0.19,0.318-0.088,0.731,0.231,0.923c0.103,0.063,0.217,0.095,0.346,0.095c0.24,0,0.451-0.125,0.571-0.324l2.413-3.981  c0.19-0.321,0.088-0.728-0.223-0.924C417.344,71.662,417.227,71.628,417.109,71.628z M422.995,62.868  c0.237,0,0.457-0.126,0.574-0.332l2.349-4.03c0.085-0.155,0.111-0.331,0.064-0.507c-0.044-0.172-0.158-0.317-0.316-0.407  c-0.103-0.062-0.217-0.092-0.337-0.092c-0.236,0-0.456,0.13-0.573,0.334l-2.34,4.028c-0.094,0.154-0.12,0.333-0.073,0.508  c0.05,0.176,0.158,0.319,0.311,0.411C422.758,62.841,422.872,62.868,422.995,62.868z M414.922,67.451  c0.006-0.173-0.056-0.354-0.179-0.495c-0.123-0.152-0.296-0.237-0.486-0.245l-4.665,0.097c-0.542,0-0.665,0.28-0.671,0.516  c-0.003,0.195,0.076,0.527,0.65,0.544l4.677,0.284C414.6,68.152,414.91,67.832,414.922,67.451z M425.49,69.643  c-0.108-0.063-0.226-0.095-0.346-0.095c-0.236,0-0.462,0.13-0.579,0.328c-0.088,0.156-0.117,0.333-0.067,0.508  c0.044,0.176,0.146,0.321,0.311,0.41l3.997,2.378c0.103,0.063,0.223,0.094,0.343,0.094c0.24,0,0.457-0.123,0.58-0.327  c0.088-0.157,0.114-0.333,0.07-0.508c-0.044-0.18-0.155-0.323-0.308-0.41L425.49,69.643z M415.706,57.717  c-0.123-0.224-0.351-0.353-0.594-0.353c-0.111,0-0.223,0.022-0.319,0.073c-0.155,0.088-0.275,0.231-0.328,0.397  c-0.053,0.172-0.035,0.355,0.053,0.514l2.19,4.104c0.114,0.221,0.343,0.358,0.589,0.358c0.12,0,0.229-0.025,0.322-0.079  c0.155-0.089,0.272-0.228,0.321-0.396c0.056-0.174,0.032-0.354-0.049-0.508L415.706,57.717z M430.601,66.752l-4.659,0.056  c-0.387,0-0.668,0.253-0.674,0.605c-0.003,0.161,0.056,0.309,0.164,0.423c0.123,0.125,0.302,0.193,0.498,0.193l4.665,0.123  c0.357,0,0.674-0.316,0.674-0.688C431.274,67.082,430.97,66.757,430.601,66.752z M423.563,72.034  c-0.114-0.214-0.34-0.346-0.58-0.346c-0.12,0-0.229,0.032-0.33,0.083c-0.319,0.183-0.439,0.588-0.261,0.914l2.264,4.066  c0.123,0.218,0.349,0.346,0.585,0.346c0.12,0,0.229-0.031,0.334-0.083c0.316-0.183,0.442-0.593,0.261-0.914L423.563,72.034z   M420.047,56.104c-0.372,0-0.665,0.3-0.665,0.672v4.652c0,0.373,0.293,0.669,0.665,0.669c0.371,0,0.67-0.296,0.67-0.669v-4.652  C420.717,56.405,420.418,56.104,420.047,56.104z M420.015,72.45c-0.381,0.051-0.647,0.319-0.647,0.647l-0.088,4.642  c-0.003,0.173,0.062,0.335,0.182,0.457c0.123,0.127,0.293,0.197,0.478,0.197h0.012c0.374,0,0.664-0.276,0.67-0.634l0.085-4.63  C420.708,72.757,420.409,72.45,420.015,72.45z"/>
<path fill="#414042" d="M214.36,53.37c-0.085-0.053-0.142-0.136-0.167-0.234c-0.023-0.098-0.004-0.199,0.046-0.282  c0.069-0.113,0.187-0.179,0.323-0.179c0.065,0,0.133,0.021,0.193,0.054l2.215,1.372c0.085,0.05,0.147,0.134,0.17,0.234  c0.024,0.096,0.008,0.196-0.046,0.284c-0.07,0.111-0.19,0.177-0.322,0.177c-0.065,0-0.135-0.019-0.197-0.054L214.36,53.37z   M217.072,57.813c0.029-0.097,0.016-0.199-0.03-0.284c-0.069-0.12-0.195-0.197-0.329-0.197c-0.065,0-0.126,0.015-0.184,0.047  l-2.285,1.246c-0.088,0.05-0.152,0.129-0.178,0.226c-0.028,0.094-0.021,0.197,0.028,0.285c0.063,0.12,0.189,0.195,0.327,0.195  c0.067,0,0.125-0.015,0.184-0.044l2.284-1.248C216.979,57.991,217.044,57.909,217.072,57.813z M222.07,54.666  c0.069,0.117,0.195,0.188,0.329,0.188c0.062,0,0.126-0.017,0.185-0.047l2.262-1.293c0.087-0.046,0.151-0.126,0.176-0.224  c0.029-0.096,0.015-0.198-0.034-0.286c-0.066-0.117-0.192-0.188-0.327-0.188c-0.064,0-0.129,0.018-0.185,0.051l-2.261,1.284  C222.034,54.258,221.969,54.487,222.07,54.666z M217.899,58.555c-0.134,0-0.257,0.069-0.323,0.182l-1.352,2.228  c-0.107,0.177-0.049,0.408,0.13,0.516c0.057,0.035,0.121,0.054,0.193,0.054c0.134,0,0.251-0.07,0.319-0.182l1.35-2.227  c0.106-0.181,0.049-0.407-0.125-0.518C218.031,58.572,217.965,58.555,217.899,58.555z M221.192,53.654  c0.133,0,0.256-0.07,0.321-0.187l1.313-2.255c0.048-0.086,0.063-0.185,0.037-0.282c-0.025-0.097-0.088-0.179-0.177-0.229  c-0.057-0.033-0.121-0.051-0.188-0.051c-0.133,0-0.255,0.073-0.321,0.186l-1.309,2.254c-0.052,0.086-0.067,0.186-0.041,0.284  c0.028,0.099,0.088,0.178,0.173,0.23C221.06,53.64,221.123,53.654,221.192,53.654z M216.675,56.218  c0.004-0.097-0.03-0.199-0.099-0.276c-0.069-0.087-0.166-0.133-0.272-0.138l-2.609,0.054c-0.303,0-0.372,0.157-0.375,0.289  c-0.001,0.108,0.043,0.294,0.364,0.305l2.617,0.159C216.496,56.61,216.669,56.431,216.675,56.218z M222.588,57.443  c-0.061-0.035-0.127-0.053-0.193-0.053c-0.133,0-0.259,0.072-0.325,0.184c-0.049,0.088-0.065,0.186-0.038,0.284  c0.024,0.098,0.082,0.18,0.173,0.229l2.237,1.33c0.057,0.034,0.124,0.052,0.191,0.052c0.135,0,0.256-0.068,0.325-0.183  c0.049-0.088,0.063-0.186,0.039-0.284c-0.024-0.101-0.086-0.18-0.172-0.229L222.588,57.443z M217.115,50.772  c-0.069-0.126-0.197-0.197-0.333-0.197c-0.062,0-0.125,0.012-0.178,0.041c-0.087,0.048-0.155,0.129-0.184,0.221  c-0.029,0.097-0.02,0.199,0.029,0.288l1.226,2.297c0.064,0.122,0.192,0.2,0.33,0.2c0.067,0,0.127-0.015,0.18-0.044  c0.087-0.05,0.152-0.129,0.18-0.223c0.031-0.098,0.018-0.197-0.028-0.284L217.115,50.772z M225.446,55.827l-2.606,0.03  c-0.216,0-0.373,0.143-0.376,0.339c-0.002,0.091,0.031,0.173,0.091,0.237c0.069,0.068,0.168,0.108,0.278,0.108l2.61,0.068  c0.2,0,0.376-0.177,0.376-0.385C225.823,56.012,225.653,55.829,225.446,55.827z M221.51,58.782c-0.064-0.12-0.189-0.193-0.324-0.193  c-0.067,0-0.127,0.018-0.186,0.045c-0.178,0.103-0.245,0.33-0.146,0.512l1.267,2.275c0.069,0.121,0.195,0.193,0.328,0.193  c0.066,0,0.127-0.018,0.187-0.047c0.176-0.103,0.247-0.331,0.146-0.512L221.51,58.782z M219.542,49.87  c-0.208,0-0.372,0.167-0.372,0.377v2.602c0,0.208,0.164,0.374,0.372,0.374s0.375-0.166,0.375-0.374v-2.602  C219.917,50.037,219.75,49.87,219.542,49.87z M219.524,59.014c-0.213,0.029-0.362,0.179-0.362,0.363l-0.049,2.596  c-0.001,0.097,0.035,0.188,0.101,0.255c0.069,0.071,0.164,0.111,0.268,0.111h0.006c0.21,0,0.372-0.155,0.375-0.354l0.047-2.59  C219.913,59.187,219.745,59.014,219.524,59.014z"/>
<g>
	<rect x="71.833" y="256.712" fill="#414042" width="506.333" height="2.249"/>
</g>
<g>
	<path fill="#AEEA00" d="M148.111,186.814l6.032,39.862c0.287,1.89,2.069,3.422,3.979,3.422h56.933c1.913,0,3.691-1.532,3.977-3.422   l6.019-39.862H148.111z M167.354,224.583c0,0.956-0.772,1.729-1.727,1.729h-1.429c-0.957,0-1.731-0.773-1.731-1.729v-28.542   c0-0.957,0.775-1.733,1.731-1.733h1.429c0.955,0,1.727,0.776,1.727,1.733V224.583z M178.185,224.583   c0,0.956-0.772,1.729-1.731,1.729h-1.426c-0.955,0-1.729-0.773-1.729-1.729v-28.542c0-0.957,0.775-1.733,1.729-1.733h1.426   c0.958,0,1.731,0.776,1.731,1.733V224.583z M189.017,224.583c0,0.956-0.775,1.729-1.729,1.729h-1.426   c-0.958,0-1.733-0.773-1.733-1.729v-28.542c0-0.957,0.774-1.733,1.733-1.733h1.426c0.955,0,1.729,0.776,1.729,1.733V224.583z    M199.848,224.583c0,0.956-0.776,1.729-1.729,1.729h-1.426c-0.958,0-1.731-0.773-1.731-1.729v-28.542   c0-0.957,0.773-1.733,1.731-1.733h1.426c0.953,0,1.729,0.776,1.729,1.733V224.583z M210.68,224.583   c0,0.956-0.777,1.729-1.733,1.729h-1.427c-0.957,0-1.729-0.773-1.729-1.729v-28.542c0-0.957,0.772-1.733,1.729-1.733h1.427   c0.956,0,1.733,0.776,1.733,1.733V224.583z"/>
	<g>
		<path fill="#414042" d="M215.054,231.134h-56.933c-2.438,0-4.636-1.89-5.002-4.301l-6.212-41.054h79.347l-6.2,41.052    C219.69,229.244,217.493,231.134,215.054,231.134z M149.316,187.85l5.851,38.672c0.21,1.377,1.561,2.54,2.955,2.54h56.933    c1.393,0,2.744-1.163,2.953-2.538l5.84-38.674H149.316z M208.947,227.349h-1.427c-1.525,0-2.765-1.239-2.765-2.766v-28.542    c0-1.527,1.24-2.77,2.765-2.77h1.427c1.527,0,2.769,1.242,2.769,2.77v28.542C211.716,226.109,210.474,227.349,208.947,227.349z     M207.521,195.344c-0.382,0-0.693,0.313-0.693,0.697v28.542c0,0.383,0.311,0.694,0.693,0.694h1.427    c0.384,0,0.698-0.312,0.698-0.694v-28.542c0-0.385-0.314-0.697-0.698-0.697H207.521z M198.119,227.349h-1.426    c-1.525,0-2.767-1.239-2.767-2.766v-28.542c0-1.527,1.242-2.77,2.767-2.77h1.426c1.525,0,2.765,1.242,2.765,2.77v28.542    C200.884,226.109,199.645,227.349,198.119,227.349z M196.693,195.344c-0.384,0-0.696,0.313-0.696,0.697v28.542    c0,0.383,0.312,0.694,0.696,0.694h1.426c0.382,0,0.694-0.312,0.694-0.694v-28.542c0-0.385-0.312-0.697-0.694-0.697H196.693z     M187.287,227.349h-1.426c-1.527,0-2.769-1.239-2.769-2.766v-28.542c0-1.527,1.242-2.77,2.769-2.77h1.426    c1.525,0,2.765,1.242,2.765,2.77v28.542C190.052,226.109,188.813,227.349,187.287,227.349z M185.861,195.344    c-0.384,0-0.695,0.313-0.695,0.697v28.542c0,0.383,0.311,0.694,0.695,0.694h1.426c0.382,0,0.694-0.312,0.694-0.694v-28.542    c0-0.385-0.312-0.697-0.694-0.697H185.861z M176.454,227.349h-1.426c-1.523,0-2.765-1.239-2.765-2.766v-28.542    c0-1.527,1.242-2.77,2.765-2.77h1.426c1.527,0,2.767,1.242,2.767,2.77v28.542C179.221,226.109,177.98,227.349,176.454,227.349z     M175.027,195.344c-0.383,0-0.694,0.313-0.694,0.697v28.542c0,0.383,0.311,0.694,0.694,0.694h1.426    c0.384,0,0.695-0.312,0.695-0.694v-28.542c0-0.385-0.311-0.697-0.695-0.697H175.027z M165.628,227.349h-1.429    c-1.525,0-2.767-1.239-2.767-2.766v-28.542c0-1.527,1.242-2.77,2.767-2.77h1.429c1.523,0,2.763,1.242,2.763,2.77v28.542    C168.391,226.109,167.151,227.349,165.628,227.349z M164.199,195.344c-0.384,0-0.695,0.313-0.695,0.697v28.542    c0,0.383,0.311,0.694,0.695,0.694h1.429c0.38,0,0.691-0.312,0.691-0.694v-28.542c0-0.385-0.312-0.697-0.691-0.697H164.199z"/>
	</g>
	<path fill="#AEEA00" d="M229.15,189.225c0,0.958-0.775,1.734-1.729,1.734h-81.679c-0.957,0-1.73-0.776-1.73-1.734v-4.82   c0-0.956,0.773-1.731,1.73-1.731h81.679c0.955,0,1.729,0.775,1.729,1.731V189.225z"/>
	<g>
		<path fill="#414042" d="M227.421,191.996h-81.679c-1.524,0-2.765-1.244-2.765-2.771v-4.82c0-1.525,1.241-2.768,2.765-2.768h81.679    c1.524,0,2.765,1.242,2.765,2.768v4.82C230.186,190.752,228.945,191.996,227.421,191.996z M145.742,183.708    c-0.383,0-0.694,0.312-0.694,0.696v4.82c0,0.387,0.311,0.699,0.694,0.699h81.679c0.382,0,0.694-0.313,0.694-0.699v-4.82    c0-0.385-0.312-0.696-0.694-0.696H145.742z"/>
	</g>
	<path fill="#FFFFFF" d="M190.521,150.871c0-0.959-0.777-1.732-1.728-1.732h-4.424c-0.956,0-1.731,0.772-1.731,1.732v35.48   c0,0.957,0.775,1.73,1.731,1.73h4.424c0.951,0,1.728-0.773,1.728-1.73V150.871z"/>
	<g>
		<path fill="#FFFFFF" d="M190.521,150.871c0-0.959-0.777-1.732-1.728-1.732h-4.424c-0.956,0-1.731,0.772-1.731,1.732v35.48    c0,0.957,0.775,1.73,1.731,1.73h4.424c0.951,0,1.728-0.773,1.728-1.73V150.871z"/>
		<path fill="#414042" d="M188.794,189.117h-4.424c-1.525,0-2.767-1.24-2.767-2.766v-35.48c0-1.525,1.241-2.768,2.767-2.768h4.424    c1.523,0,2.763,1.242,2.763,2.768v35.48C191.557,187.877,190.317,189.117,188.794,189.117z M184.37,150.174    c-0.384,0-0.696,0.311-0.696,0.697v35.48c0,0.383,0.312,0.694,0.696,0.694h4.424c0.383,0,0.692-0.312,0.692-0.694v-35.48    c0-0.386-0.31-0.697-0.692-0.697H184.37z"/>
	</g>
	<g>
		<path fill="#414042" d="M228.507,189.085h-20.713c-0.572,0-1.036-0.464-1.036-1.035c0-0.573,0.464-1.037,1.036-1.037h20.713    c0.573,0,1.036,0.464,1.036,1.037C229.543,188.621,229.08,189.085,228.507,189.085z"/>
	</g>
	<g>
		<path fill="#414042" d="M164.296,187.013h-20.713c-0.573,0-1.036-0.463-1.036-1.035s0.463-1.035,1.036-1.035h20.713    c0.573,0,1.036,0.463,1.036,1.035S164.869,187.013,164.296,187.013z"/>
	</g>
</g>
<g>
	
		<rect x="457.669" y="148.692" transform="matrix(0.9865 -0.1639 0.1639 0.9865 -23.321 80.4947)" fill="#AEEA00" width="37.003" height="65.781"/>
	<g>
		<path fill="#414042" d="M501.839,210.659l-38.529,6.401l-11.117-66.917l38.53-6.401L501.839,210.659z M465.003,214.695    l34.473-5.728l-10.444-62.86l-34.475,5.725L465.003,214.695z"/>
	</g>
	<g>
		<path fill="#414042" d="M494.408,203.557l-26.363,4.381l-8.421-50.695l26.361-4.381L494.408,203.557z M469.737,205.574    l22.306-3.708l-7.748-46.641l-22.306,3.705L469.737,205.574z"/>
	</g>
	<rect x="464.376" y="152.299" fill="#AEEA00" width="35.004" height="65.343"/>
	<g>
		<path fill="#414042" d="M501.715,217.642h-37.339v-67.673h37.339V217.642z M464.376,215.308h35.004v-63.009h-35.004V215.308z"/>
	</g>
	<g>
		<path fill="#414042" d="M497.047,208.307h-28.004v-51.341h28.004V208.307z M471.376,205.973h23.338v-46.674h-23.338V205.973z"/>
	</g>
	<path fill="#FF6E40" d="M506.382,221.101c0,3.446-2.25,5.875-5.145,5.875H431.55c-2.896,0-4.513-2.429-4.513-5.875v-38.915   c0-3.446,1.617-6.55,4.513-6.55h69.688c2.895,0,5.145,3.104,5.145,6.55V221.101z"/>
	<g>
		<path fill="#414042" d="M501.237,229.31h-69.514c-3.716,0-7.021-4.484-7.021-8.021v-39.212c0-3.43,3.28-6.44,7.021-6.44h69.514    c3.271,0,5.145,2.347,5.145,6.44v39.212C506.382,225.28,504.79,229.31,501.237,229.31z M431.724,177.969    c-2.213,0-4.687,1.758-4.687,4.107v39.212c0,2.35,2.424,5.688,4.687,5.688h69.514c2.062,0,2.812-3.402,2.812-5.688v-39.212    c0-4.107-2.043-4.107-2.812-4.107H431.724z"/>
	</g>
	<g>
		<path fill="#414042" d="M497.331,224.643h-7.285c-0.645,0-1.167-0.522-1.167-1.167s0.522-1.166,1.167-1.166h7.285    c1.299,0,2.049-0.808,2.049-4.929v-11.408c0-0.645,0.522-1.166,1.167-1.166c0.646,0,1.168,0.521,1.168,1.166v11.408    C501.715,219.554,501.715,224.643,497.331,224.643z"/>
	</g>
	<g>
		<path fill="#414042" d="M500.547,202.473c-0.645,0-1.167-0.521-1.167-1.166v-9.335c0-0.646,0.522-1.167,1.167-1.167    c0.646,0,1.168,0.521,1.168,1.167v9.335C501.715,201.951,501.193,202.473,500.547,202.473z"/>
	</g>
	<rect x="438.705" y="198.972" fill="#FFAB00" width="11.668" height="7.001"/>
	<g>
		<path fill="#FFFFFF" d="M471.102,196.718c0-3.883,2.133-7.247,5.266-9.067c-1.557-0.908-3.337-1.466-5.266-1.466    c-5.821,0-10.536,4.72-10.536,10.533c0,5.823,4.715,10.535,10.536,10.535c1.929,0,3.709-0.556,5.266-1.462    C473.234,203.971,471.102,200.61,471.102,196.718z"/>
		<path fill="#FFC400" d="M484.26,186.185c-1.929,0-3.712,0.558-5.267,1.466c-3.14,1.82-5.268,5.185-5.268,9.067    c0,3.893,2.128,7.253,5.268,9.073c1.555,0.906,3.338,1.462,5.267,1.462c5.816,0,10.534-4.712,10.534-10.535    C494.794,190.904,490.076,186.185,484.26,186.185z"/>
	</g>
	<g>
		<path fill="#FFFFFF" d="M488.896,215.308h-50.797c-0.539,0-0.979-0.629-0.979-1.167c0-0.543,0.439-1.166,0.979-1.166h50.797    c0.539,0,0.977,0.623,0.977,1.166C489.872,214.679,489.435,215.308,488.896,215.308z"/>
	</g>
	<path fill="#FFBC66" d="M451.324,214.815c0,8.396-6.806,15.2-15.201,15.2c-8.397,0-15.2-6.804-15.2-15.2   c0-8.398,6.803-15.203,15.2-15.203C444.519,199.612,451.324,206.417,451.324,214.815z"/>
	<g>
		<path fill="#414042" d="M436.123,231.184c-9.024,0-16.367-7.343-16.367-16.368c0-9.026,7.343-16.37,16.367-16.37    s16.368,7.344,16.368,16.37C452.491,223.841,445.147,231.184,436.123,231.184z M436.123,200.779    c-7.738,0-14.033,6.297-14.033,14.036c0,7.74,6.295,14.034,14.033,14.034c7.737,0,14.034-6.294,14.034-14.034    C450.157,207.076,443.86,200.779,436.123,200.779z"/>
	</g>
	<g>
		<path fill="#414042" d="M436.123,224.791c-5.5,0-9.973-4.477-9.973-9.976s4.473-9.974,9.973-9.974s9.975,4.475,9.975,9.974    S441.623,224.791,436.123,224.791z M436.123,206.593c-4.534,0-8.223,3.689-8.223,8.223c0,4.535,3.688,8.225,8.223,8.225    s8.226-3.689,8.226-8.225C444.349,210.282,440.657,206.593,436.123,206.593z"/>
	</g>
	<g>
		<path fill="#414042" d="M435.6,220.438v-1.385c-0.798-0.011-1.619-0.259-2.1-0.604l0.328-0.916c0.495,0.328,1.206,0.59,1.974,0.59    c0.974,0,1.633-0.563,1.633-1.344c0-0.752-0.536-1.218-1.548-1.63c-1.397-0.549-2.261-1.181-2.261-2.37    c0-1.137,0.806-2.001,2.066-2.204v-1.385h0.849v1.326c0.824,0.026,1.386,0.248,1.783,0.483l-0.344,0.902    c-0.285-0.164-0.848-0.465-1.726-0.465c-1.055,0-1.453,0.628-1.453,1.178c0,0.709,0.508,1.068,1.699,1.561    c1.412,0.577,2.124,1.288,2.124,2.508c0,1.084-0.755,2.097-2.164,2.329v1.425H435.6z"/>
	</g>
	<g>
		<path fill="#414042" d="M439.785,227.968c-0.377,0-0.726-0.246-0.838-0.625c-0.139-0.465,0.124-0.952,0.588-1.089    c2.965-0.882,5.527-2.946,7.031-5.663c0.234-0.424,0.769-0.579,1.19-0.342c0.423,0.234,0.576,0.768,0.343,1.189    c-1.727,3.115-4.666,5.48-8.064,6.493C439.951,227.956,439.867,227.968,439.785,227.968z"/>
	</g>
	<g>
		<path fill="#414042" d="M424.063,211.367c-0.098,0-0.197-0.016-0.295-0.05c-0.454-0.164-0.691-0.665-0.529-1.119    c1.543-4.305,5.109-7.541,9.54-8.653c0.47-0.12,0.944,0.167,1.063,0.634c0.118,0.47-0.167,0.945-0.636,1.063    c-3.863,0.973-6.975,3.792-8.318,7.545C424.761,211.145,424.422,211.367,424.063,211.367z"/>
	</g>
</g>
<g>
	<g>
		<rect x="258.205" y="60.017" fill="#FFFFFF" width="130.244" height="205.972"/>
		<rect x="258.205" y="60.017" fill="#E6E7E8" width="130.244" height="24.12"/>
		<g>
			<path fill="#414042" d="M393.274,265.989h-135.07V55.193h135.07V265.989z M263.027,261.165h125.421V60.017H263.027V261.165z"/>
		</g>
		<rect x="277.5" y="137.2" fill="#FFD740" width="101.301" height="38.59"/>
		<rect x="277.5" y="185.438" fill="#FF6E40" width="28.942" height="51.608"/>
		<rect x="311.266" y="185.438" fill="#00E5FF" width="28.944" height="51.608"/>
		<rect x="349.858" y="185.438" fill="#AEEA00" width="28.943" height="51.608"/>
		<g>
			<path fill="#414042" d="M349.858,251.518h-43.416c-1.334,0-2.414-1.079-2.414-2.413c0-1.332,1.08-2.412,2.414-2.412h43.416     c1.334,0,2.412,1.08,2.412,2.412C352.271,250.438,351.192,251.518,349.858,251.518z"/>
		</g>
	</g>
	<polygon fill="#E6633A" points="280.167,115.464 267.183,115.464 241.099,141.561 259.736,141.561  "/>
	<polygon fill="#E6E7E8" points="293.153,115.464 280.167,115.464 259.736,141.561 278.385,141.561  "/>
	<polygon fill="#E6E7E8" points="358.356,116.99 371.343,116.99 391.774,143.087 373.124,143.087  "/>
	<polygon fill="#E6633A" points="306.137,115.464 293.153,115.464 278.385,141.561 297.04,141.561  "/>
	<polygon fill="#E6E7E8" points="319.138,115.464 306.137,115.464 297.04,141.561 315.677,141.561  "/>
	<polygon fill="#E6633A" points="332.122,115.464 319.138,115.464 315.677,141.561 334.331,141.561  "/>
	<polygon fill="#E6E7E8" points="345.097,115.464 332.122,115.464 334.331,141.561 352.995,141.561  "/>
	<polygon fill="#E6633A" points="358.083,115.464 345.097,115.464 352.995,141.561 371.618,141.561  "/>
	<polygon fill="#E6633A" points="384.063,115.464 371.075,115.464 390.267,141.561 408.921,141.561  "/>
	<polygon fill="#E6E7E8" points="397.056,115.464 384.063,115.464 408.921,141.561 427.563,141.561  "/>
	<polygon fill="#E6E7E8" points="267.183,115.464 254.2,115.464 222.459,141.561 241.099,141.561  "/>
	<path fill="#FFFFFF" d="M241.089,153.998c-5.147,5.156-13.501,5.156-18.634,0c0-4.584,0-9.154,0-13.738c6.197,0,12.413,0,18.634,0   C241.089,144.844,241.089,149.414,241.089,153.998z"/>
	<path fill="#FF6E40" d="M259.736,153.998c-5.131,5.156-13.49,5.156-18.637,0c0-4.584,0-9.154,0-13.738c6.209,0,12.442,0,18.637,0   C259.736,144.844,259.736,149.414,259.736,153.998z"/>
	<path fill="#FFFFFF" d="M278.385,153.998c-5.158,5.156-13.492,5.156-18.649,0c0-4.584,0-9.154,0-13.738c6.217,0,12.422,0,18.649,0   C278.385,144.844,278.385,149.414,278.385,153.998z"/>
	<path fill="#FF6E40" d="M297.04,153.998c-5.153,5.156-13.497,5.156-18.654,0c0-4.584,0-9.154,0-13.738c6.208,0,12.437,0,18.654,0   C297.04,144.844,297.04,149.414,297.04,153.998z"/>
	<path fill="#FFFFFF" d="M315.673,153.998c-5.141,5.156-13.493,5.156-18.638,0c0-4.584,0-9.154,0-13.738c6.205,0,12.428,0,18.638,0   C315.673,144.844,315.673,149.414,315.673,153.998z"/>
	<path fill="#FF6E40" d="M334.331,153.998c-5.15,5.156-13.502,5.156-18.654,0c0-4.584,0-9.154,0-13.738c6.213,0,12.424,0,18.654,0   C334.331,144.844,334.331,149.414,334.331,153.998z"/>
	<path fill="#FFFFFF" d="M352.966,153.998c-5.143,5.156-13.498,5.156-18.635,0c0-4.584,0-9.154,0-13.738c6.207,0,12.434,0,18.635,0   C352.966,144.844,352.966,149.414,352.966,153.998z"/>
	<path fill="#FF6E40" d="M371.618,153.998c-5.146,5.156-13.502,5.156-18.652,0c0-4.584,0-9.154,0-13.738c6.23,0,12.438,0,18.652,0   C371.618,144.844,371.618,149.414,371.618,153.998z"/>
	<path fill="#FFFFFF" d="M390.267,153.998c-5.152,5.156-13.496,5.156-18.648,0c0-4.584,0-9.154,0-13.738c6.227,0,12.432,0,18.648,0   C390.267,144.844,390.267,149.414,390.267,153.998z"/>
	<path fill="#FF6E40" d="M408.913,153.998c-5.145,5.156-13.502,5.156-18.646,0c0-4.584,0-9.154,0-13.738c6.205,0,12.432,0,18.646,0   C408.913,144.844,408.913,149.414,408.913,153.998z"/>
	<path fill="#FFFFFF" d="M427.548,153.998c-5.141,5.156-13.49,5.156-18.635,0c0-4.584,0-9.154,0-13.738c6.213,0,12.436,0,18.635,0   C427.548,144.844,427.548,149.414,427.548,153.998z"/>
	<g>
		<path fill="#414042" d="M231.766,160.277c-0.003,0-0.008,0-0.008,0c-4.166,0-8.079-1.63-11.015-4.578l-0.703-0.708V140.26h4.825    v12.682c1.927,1.626,4.343,2.512,6.893,2.512c0.005,0,0.005,0,0.008,0c2.559,0,4.975-0.886,6.912-2.512V140.26h4.824v14.737    l-0.707,0.706C239.85,158.652,235.932,160.277,231.766,160.277z"/>
	</g>
	<g>
		<path fill="#414042" d="M250.422,160.277c-4.166,0-8.084-1.625-11.03-4.574l-0.705-0.706V140.26h4.823v12.682    c1.937,1.626,4.358,2.512,6.912,2.512c0.004,0,0.01,0,0.015,0c2.547,0,4.958-0.886,6.885-2.512V140.26h4.825v14.731l-0.702,0.708    c-2.934,2.948-6.84,4.574-11.005,4.578C250.437,160.277,250.427,160.277,250.422,160.277z"/>
	</g>
	<g>
		<path fill="#414042" d="M269.062,160.264c-3.993,0-7.989-1.517-11.032-4.561l-0.708-0.706V140.26h4.825v12.677    c3.872,3.255,9.953,3.265,13.828,0V140.26h4.822v14.737l-0.705,0.706C277.046,158.747,273.053,160.264,269.062,160.264z"/>
	</g>
	<g>
		<path fill="#414042" d="M287.714,160.277c-4.166,0-8.084-1.625-11.035-4.574l-0.705-0.706V140.26h4.822v12.677    c3.886,3.265,9.965,3.25,13.832,0.005V140.26h4.825v14.737l-0.708,0.706C295.795,158.652,291.882,160.277,287.714,160.277z"/>
	</g>
	<g>
		<path fill="#414042" d="M306.354,160.277c-4.165,0-8.085-1.625-11.028-4.574l-0.703-0.706V140.26h4.825v12.682    c1.93,1.626,4.351,2.512,6.906,2.512c0.004,0,0.004,0,0.004,0c2.553,0,4.971-0.886,6.901-2.512V140.26h4.824v14.737l-0.703,0.702    c-2.941,2.953-6.854,4.578-11.022,4.578C306.358,160.277,306.358,160.277,306.354,160.277z"/>
	</g>
	<g>
		<path fill="#414042" d="M325.003,160.277c-4.168,0-8.084-1.625-11.031-4.574l-0.709-0.706V140.26h4.826v12.682    c1.936,1.626,4.357,2.512,6.914,2.512c0.006,0,0.006,0,0.006,0c2.559,0,4.975-0.886,6.91-2.512V140.26h4.824v14.737l-0.705,0.706    c-2.945,2.949-6.859,4.574-11.029,4.574C325.009,160.277,325.009,160.277,325.003,160.277z"/>
	</g>
	<g>
		<path fill="#414042" d="M343.646,160.277h-0.006c-4.168,0-8.078-1.625-11.02-4.578l-0.701-0.708V140.26h4.824v12.682    c1.928,1.626,4.342,2.512,6.896,2.512c0.006,0,0.006,0,0.006,0c2.557,0,4.977-0.886,6.908-2.512V140.26h4.826v14.737l-0.703,0.706    C351.733,158.652,347.813,160.277,343.646,160.277z"/>
	</g>
	<g>
		<path fill="#414042" d="M362.294,160.277c-4.168,0-8.09-1.625-11.031-4.574l-0.709-0.706V140.26h4.826v12.682    c1.934,1.626,4.357,2.512,6.914,2.512l0,0c2.561,0,4.98-0.886,6.91-2.512V140.26h4.824v14.737l-0.701,0.706    c-2.943,2.949-6.865,4.574-11.029,4.574C362.294,160.277,362.294,160.277,362.294,160.277z"/>
	</g>
	<g>
		<path fill="#414042" d="M380.942,160.277c-4.166,0-8.082-1.625-11.031-4.574l-0.707-0.706V140.26h4.824v12.682    c3.873,3.245,9.955,3.254,13.828,0V140.26h4.822v14.737l-0.705,0.706C389.022,158.652,385.11,160.277,380.942,160.277z"/>
	</g>
	<g>
		<path fill="#414042" d="M399.591,160.277c-4.172,0-8.09-1.625-11.033-4.574l-0.701-0.706V140.26h4.822v12.682    c3.863,3.25,9.959,3.25,13.822,0V140.26h4.824v14.737l-0.703,0.706C407.679,158.652,403.759,160.277,399.591,160.277z"/>
	</g>
	<g>
		<path fill="#414042" d="M418.229,160.277c-4.162,0-8.084-1.625-11.027-4.574l-0.701-0.706V140.26h4.824v12.682    c1.932,1.626,4.352,2.512,6.904,2.512c0.006,0,0.006,0,0.006,0c2.555,0,4.971-0.886,6.902-2.512V140.26h4.822v14.737l-0.701,0.702    c-2.945,2.953-6.854,4.578-11.023,4.578C418.235,160.277,418.235,160.277,418.229,160.277z"/>
	</g>
	<g>
		
			<rect x="235.519" y="107.699" transform="matrix(0.6289 0.7775 -0.7775 0.6289 188.3077 -137.2552)" fill="#414042" width="4.823" height="41.856"/>
	</g>
	<g>
		
			<rect x="390.464" y="126.215" transform="matrix(0.7774 0.629 -0.629 0.7774 172.4988 -230.1459)" fill="#414042" width="41.855" height="4.824"/>
	</g>
	<g>
		<polygon fill="#414042" points="242.36,143.502 238.96,140.083 265.482,113.753 268.885,117.173   "/>
	</g>
	<g>
		<polygon fill="#414042" points="261.61,143.078 257.859,140.044 279.008,113.948 282.758,116.98   "/>
	</g>
	<g>
		<polygon fill="#414042" points="280.485,142.749 276.283,140.375 291.053,114.275 295.256,116.651   "/>
	</g>
	<g>
		<polygon fill="#414042" points="299.31,142.358 294.76,140.766 303.862,114.667 308.412,116.259   "/>
	</g>
	<g>
		<polygon fill="#414042" points="318.063,141.876 313.278,141.245 316.747,115.149 321.532,115.781   "/>
	</g>
	<g>
		
			<rect x="378.326" y="126.216" transform="matrix(0.6953 0.7188 -0.7188 0.6953 213.3257 -245.891)" fill="#414042" width="36.629" height="4.825"/>
	</g>
	<g>
		<polygon fill="#414042" points="388.71,142.701 368.323,116.962 372.101,113.964 392.485,139.707   "/>
	</g>
	<g>
		<polygon fill="#414042" points="369.851,142.701 355.817,116.605 360.065,114.325 374.099,140.42   "/>
	</g>
	<g>
		
			<rect x="335.48" y="125.922" transform="matrix(0.2973 0.9548 -0.9548 0.2973 367.7458 -243.0019)" fill="#414042" width="26.961" height="4.824"/>
	</g>
	<g>
		<polygon fill="#414042" points="331.929,141.194 329.556,115.685 334.36,115.243 336.731,140.751   "/>
	</g>
	<rect x="254.2" y="92.61" fill="#FFFFFF" width="142.76" height="24.38"/>
	<g>
		<path fill="#414042" d="M399.374,119.402H251.789V90.199h147.585V119.402z M256.613,114.578H394.55V95.024H256.613V114.578z"/>
	</g>
	<rect x="255.925" y="94.336" fill="#FFFFFF" width="139.312" height="20.934"/>
	<g>
		<path fill="#414042" d="M308.524,101.246c-0.479-0.804-1.799-1.558-3.32-1.558c-1.959,0-2.892,0.819-2.892,1.859    c0,1.219,1.436,1.556,3.108,1.757c2.921,0.358,5.639,1.121,5.639,4.453c0,3.119-2.758,4.455-5.875,4.455    c-2.858,0-5.046-0.885-6.096-3.434l2.2-1.141c0.623,1.542,2.234,2.215,3.935,2.215c1.662,0,3.217-0.575,3.217-2.096    c0-1.315-1.379-1.862-3.236-2.054c-2.858-0.336-5.493-1.104-5.493-4.232c0-2.882,2.841-4.061,5.412-4.077    c2.18,0,4.438,0.617,5.493,2.773L308.524,101.246z"/>
		<path fill="#414042" d="M322.616,111.875v-5.653h-6.869v5.653h-2.639V97.892h2.639v5.894h6.869v-5.894h2.619v13.983H322.616z"/>
		<path fill="#414042" d="M341.44,104.94c-0.039,3.617-2.258,7.235-7.166,7.235c-4.918,0-7.193-3.538-7.193-7.209    c0-3.682,2.355-7.376,7.193-7.376C339.085,97.59,341.476,101.285,341.44,104.94z M329.677,105.006    c0.061,2.294,1.301,4.751,4.598,4.751c3.291,0,4.527-2.477,4.57-4.775c0.037-2.356-1.279-4.993-4.57-4.993    C330.978,99.989,329.616,102.646,329.677,105.006z"/>
		<path fill="#414042" d="M349.962,107.738h-3.951v4.117h-2.641V97.867c2.197,0,4.391-0.012,6.592-0.012    C356.792,97.855,356.812,107.738,349.962,107.738z M346.011,105.327h3.951c3.373,0,3.354-4.965,0-4.965h-3.951V105.327z"/>
	</g>
	<circle fill="#00E5FF" cx="275.252" cy="69.18" r="4.409"/>
	<circle fill="#00E5FF" cx="289.724" cy="69.18" r="4.409"/>
	<circle fill="#00E5FF" cx="304.195" cy="69.18" r="4.408"/>
	<g>
		<rect x="263.027" y="79.313" fill="#414042" width="130.247" height="4.824"/>
	</g>
</g>
</svg>
